<svg xmlns="http://www.w3.org/2000/svg" xml:space="preserve" id="Layer_6_copy" x="0" y="0" viewBox="0 0 638 751"><circle cx="223.9" cy="650.6" r="25.8" style="fill:#292c35"/><path d="M-7 740.6h638V0H-7v740.6m243-110.4c.4.2 1.5-.1 2 0 5.6.9 9.4 9 10 13.8.4 3.6.9 13.1-3 14.8-3.6 9.9-14.9 14.6-25 13.8-15.8-1.2-23.1-17.1-20-31.6s28-19.1 36-10.8z" style="fill:none;stroke:#000;stroke-width:.3;stroke-opacity:0"/><path d="M220 672.6c-7-1.2-16.7-9.4-18-16.8-.9-3.2-1-7-1-10.8 0-.9-.2-2.1 0-3 .8-4.1 10-12.9 14-13.8 4.2-.9 11.7-.6 16 0 2.4.4 2.9 1.1 5 2-8-8.2-32.9-3.7-36 10.8s4.1 30.4 20 31.6z" style="fill:none;stroke:#0c101c;stroke-width:.3;stroke-opacity:.21"/><path d="M201 642c1.1-3 11-12.9 14-13.8-4 .9-13.2 9.7-14 13.8z" style="fill:none;stroke:#292c37;stroke-width:.3;stroke-opacity:.48"/><path d="M201 642c-.2.9 0 2.1 0 3 .3.2 1 0 1 0 .2-4.8 8.1-11.2 12-13.8 5.5-3.6 15.8-3 21 1 6.4 4.9 11.2 9.5 11 17.8-.1 2.1-.1 6-1 7.9 5.7-10.2-2.1-26.9-14-29.6-4.3-.6-11.8-.9-16 0-3.1.8-12.9 10.7-14 13.7z" style="fill:none;stroke:#424751;stroke-width:.3;stroke-opacity:.69"/><path d="M245 657.8c-.2.4 0 1 0 1 3.9-1.6 3.4-11.2 3-14.8-.8-4.3-6.2-10.9-10-13.8-.5-.1-1.6.2-2 0-2.1-.9-2.6-1.6-5-2 11.9 2.7 19.6 19.3 14 29.6z" style="fill:none;stroke:#0c121c;stroke-width:.3;stroke-opacity:.35"/><path d="M214 631.1c5.3-2.3 16-1.9 21 1-5.2-3.9-15.5-4.6-21-1z" style="fill:none;stroke:#484d56;stroke-width:.3;stroke-opacity:.96"/><path d="M214 631.1c-3.9 2.6-11.8 9.1-12 13.8 3.1-8 14.4-9.4 21-6.9-1.8 6.3 8.3 1.2 12 3.9-.1-7.5 8.8 5.4 11 7.9.2-8.3-4.6-12.9-11-17.8-5-2.8-15.7-3.2-21-.9z" style="fill:none;stroke:#6a707e;stroke-width:.3;stroke-opacity:.99"/><path d="M248 644c-.6-4.8-4.4-12.9-10-13.8 3.8 2.9 9.1 9.4 10 13.8z" style="fill:none;stroke:#00020c;stroke-width:.3;stroke-opacity:.12"/><path d="M202 644.9c.3 2.9 0 6 0 8.9 2.3 9.7 9.5 13.2 19 16.7 9.5 3.6 17.6-8.8 24-12.8.9-1.9.9-5.8 1-7.9-2.2-2.5-11.1-15.4-11-7.9-3.6-2.8-13.8 2.4-12-3.9-6.6-2.4-17.9-1.1-21 6.9z" style="fill:none;stroke:#7f828f;stroke-width:.3"/><path d="M202 655.8c-.1-.5 0-1.5 0-2 0-2.9.3-6 0-8.9 0 0-.7.2-1 0 0 3.9 0 7.7 1 10.9z" style="fill:none;stroke:#696b75;stroke-width:.3;stroke-opacity:.69"/><path d="M202 655.8c1.3 7.4 11 15.5 18 16.8 10.1.8 21.4-3.9 25-13.8 0 0-.2-.6 0-1-6.4 4-14.4 16.4-24 12.8-9.5-3.6-16.7-7.1-19-16.7 0 .4-.1 1.4 0 1.9z" style="fill:none;stroke:#90929d;stroke-width:.3;stroke-opacity:.6"/><path d="M-7 740.6h638V0H-7zm243-110.4c.4.2 1.5-.1 2 0 5.6.9 9.4 9 10 13.8.4 3.6.9 13.1-3 14.8-3.6 9.9-14.9 14.6-25 13.8-15.8-1.2-23.1-17.1-20-31.6s28-19.1 36-10.8" style="fill-opacity:0"/><path d="M220 672.6c-7-1.2-16.7-9.4-18-16.8-.9-3.2-1-7-1-10.8 0-.9-.2-2.1 0-3 .8-4.1 10-12.9 14-13.8 4.2-.9 11.7-.6 16 0 2.4.4 2.9 1.1 5 2-8-8.2-32.9-3.7-36 10.8s4.1 30.4 20 31.6" style="fill:#0c101c;fill-opacity:.21"/><path d="M201 642c1.1-3 11-12.9 14-13.8-4 .9-13.2 9.7-14 13.8" style="fill:#292c37;fill-opacity:.48"/><path d="M201 642c-.2.9 0 2.1 0 3 .3.2 1 0 1 0 .2-4.8 8.1-11.2 12-13.8 5.5-3.6 15.8-3 21 1 6.4 4.9 11.2 9.5 11 17.8-.1 2.1-.1 6-1 7.9 5.7-10.2-2.1-26.9-14-29.6-4.3-.6-11.8-.9-16 0-3.1.8-12.9 10.7-14 13.7" style="fill:#424751;fill-opacity:.69"/><path d="M245 657.8c-.2.4 0 1 0 1 3.9-1.6 3.4-11.2 3-14.8-.8-4.3-6.2-10.9-10-13.8-.5-.1-1.6.2-2 0-2.1-.9-2.6-1.6-5-2 11.9 2.7 19.6 19.3 14 29.6" style="fill:#0c121c;fill-opacity:.35"/><path d="M214 631.1c5.3-2.3 16-1.9 21 1-5.2-3.9-15.5-4.6-21-1" style="fill:#484d56;fill-opacity:.96"/><path d="M214 631.1c-3.9 2.6-11.8 9.1-12 13.8 3.1-8 14.4-9.4 21-6.9-1.8 6.3 8.3 1.2 12 3.9-.1-7.5 8.8 5.4 11 7.9.2-8.3-4.6-12.9-11-17.8-5-2.8-15.7-3.2-21-.9" style="fill:#6a707e;fill-opacity:.99"/><path d="M248 644c-.6-4.8-4.4-12.9-10-13.8 3.8 2.9 9.1 9.4 10 13.8" style="fill:#00020c;fill-opacity:.12"/><path d="M202 644.9c.3 2.9 0 6 0 8.9 2.3 9.7 9.5 13.2 19 16.7 9.5 3.6 17.6-8.8 24-12.8.9-1.9.9-5.8 1-7.9-2.2-2.5-11.1-15.4-11-7.9-3.6-2.8-13.8 2.4-12-3.9-6.6-2.4-17.9-1.1-21 6.9" style="fill:#7f828f"/><path d="M202 655.8c-.1-.5 0-1.5 0-2 0-2.9.3-6 0-8.9 0 0-.7.2-1 0 0 3.9 0 7.7 1 10.9" style="fill:#696b75;fill-opacity:.69"/><path d="M202 655.8c1.3 7.4 11 15.5 18 16.8 10.1.8 21.4-3.9 25-13.8 0 0-.2-.6 0-1-6.4 4-14.4 16.4-24 12.8-9.5-3.6-16.7-7.1-19-16.7 0 .4-.1 1.4 0 1.9" style="fill:#90929d;fill-opacity:.6"/></svg>