<svg xmlns="http://www.w3.org/2000/svg" xml:space="preserve" id="Layer_5" x="0" y="0" viewBox="0 0 638 751"><circle cx="325.8" cy="671.1" r="25.8" style="fill:#292c35"/><path d="M6.8 740.4h638V-.2H6.8v740.6m343-67c-.4 9.2-4.9 16.5-13 18.7-5.1 1.4-10.3 2.8-16 2-.4 0-.8-.9-1-1-8.6-2.3-12.9-7.9-16-15.8-.3-.7-.9-.8-1-2-1.1-2.7-1.4-6.5-1-9.9.8-6.6 4.6-10.3 10-13.8 17.3-11.1 38.8 2.5 38 21.8z" style="fill:none;stroke:#000;stroke-width:.3;stroke-opacity:0"/><path d="M311.8 651.7c-3.9 3.2-9.1 9.4-10 13.8-.4 3.3-.1 7.2 1 9.9-.3-2.4-.2-5.5 0-7.9s1.8-5.9 3-7.9c2.6-4.3 8.2-9.1 13-9.9s12.6-.6 17 1 7.9 6.2 10 9.9c1.6 2.8 2.7 4.6 3 7.9.1 1.6.1 3.3 0 4.9 0-.1 1 0 1 0 .8-19.3-20.7-32.9-38-21.7z" style="fill:none;stroke:#080c16;stroke-width:.3;stroke-opacity:.27"/><path d="M305.8 659.6c2.3-3.2 9.6-9.1 13-9.9-4.7.8-10.4 5.6-13 9.9z" style="fill:none;stroke:#151721;stroke-width:.3;stroke-opacity:.46"/><path d="M305.8 659.6c-1.2 2-2.8 5.4-3 7.9h1c1.7-5.9 6-10 11-13.8 5.8-4.4 16.2-4.4 22 0 4 3.1 10.1 7.8 11 12.8.1.5 0 1.5 0 2 .3.2 1 0 1 0-.3-3.3-1.4-5.1-3-7.9-1.9-2.3-7.5-8.6-10-9.9-4.4-1.6-12.2-1.8-17-1-3.4.8-10.7 6.7-13 9.9z" style="fill:none;stroke:#343642;stroke-width:.3;stroke-opacity:.69"/><path d="M314.8 653.7c5.9-2.6 16.2-3.3 22 0-5.7-4.4-16.2-4.4-22 0z" style="fill:none;stroke:#3e404c;stroke-width:.3;stroke-opacity:.95"/><path d="M345.8 660.6c-2.1-3.6-5.6-8.3-10-9.9 2.5 1.3 8.1 7.6 10 9.9z" style="fill:none;stroke:#30323e;stroke-width:.3;stroke-opacity:.54"/><path d="M301.8 665.5c.9-4.4 6.1-10.7 10-13.8-5.4 3.5-9.2 7.2-10 13.8z" style="fill:none;stroke:#070916;stroke-width:.3;stroke-opacity:.13"/><path d="M314.8 653.7c-5 3.8-9.3 7.9-11 13.8.4 1.9-.3 4 0 5.9.9-11.2 11.7-11.3 20-10.9s19.2-6.7 24 4c-.9-5-7-9.7-11-12.8-5.8-3.3-16.1-2.7-22 0z" style="fill:none;stroke:#696c7c;stroke-width:.3;stroke-opacity:.99"/><path d="M303.8 673.4c.2 1.2.6 1.8 1 3 1.6 4.7 4.9 9.4 9 12.8 5.9 3.8 13.3 2.8 20 2 .5-.1 1.5.1 2 0 2.4-1.4 8.8-10.8 11-10.8 1.2-2.9 1.2-8.6 1-11.8 0-.5.1-1.5 0-2-4.7-10.7-15.7-3.5-24-4s-19.1-.4-20 10.8z" style="fill:none;stroke:#7f8290;stroke-width:.3"/><path d="M302.8 675.4c.1 1.2.7 1.3 1 2 0-.3.9-.7 1-1-.4-1.2-.8-1.7-1-3-.3-1.9.4-4 0-5.9h-1c-.2 2.4-.3 5.4 0 7.9z" style="fill:none;stroke:#5a5c67;stroke-width:.3;stroke-opacity:.68"/><path d="M346.8 680.3c1.1-2.3 1.9-3.9 2-6.9.1-1.6.1-3.3 0-4.9 0 0-.7.2-1 0 .2 3.2.2 8.9-1 11.8z" style="fill:none;stroke:#71737f;stroke-width:.3;stroke-opacity:.64"/><path d="M346.8 680.3c-.2.4.1 1.5 0 2-.5 2.9-5.2 7.6-8 8.9-.5.2-1.6.8-2 1 8.1-2.2 12.6-9.5 13-18.7 0 0-1-.1-1 0-.1 2.9-.9 4.5-2 6.8z" style="fill:none;stroke:#010415;stroke-width:.3;stroke-opacity:.17"/><path d="M303.8 677.3c3.1 7.9 7.4 13.5 16 15.8-.3-1.3-4-2.3-6-3.9-4.1-3.4-7.4-8.1-9-12.8-.1.2-1 .6-1 .9z" style="fill:none;stroke:#90929d;stroke-width:.3;stroke-opacity:.52"/><path d="M335.8 691.1c3.1-.8 6.8-4.7 9-6.9.2-.3 2-1.9 2-2 .1-.5-.2-1.6 0-2-2.2.1-8.6 9.5-11 10.9z" style="fill:none;stroke:#9ea0ad;stroke-width:.3;stroke-opacity:.65"/><path d="M344.8 684.2c-1.6 2-4 5.5-6 6.9 2.8-1.2 7.5-6 8-8.9 0 .1-1.7 1.7-2 2z" style="fill:none;stroke:#3b3e49;stroke-width:.3;stroke-opacity:.36"/><path d="M335.8 691.1c-.5.1-1.5-.1-2 0-3.9 1.9-9 1.8-13 3 5.7.8 10.9-.6 16-2 .4-.1 1.5-.8 2-1 2-1.4 4.4-4.9 6-6.9-2.2 2.2-5.9 6.1-9 6.9z" style="fill:none;stroke:#a7a9b4;stroke-width:.3;stroke-opacity:.37"/><path d="M319.8 693.1c.2.1.6.9 1 1 4-1.2 9.1-1.1 13-3-6.7.8-14.1 1.8-20-2 2 1.7 5.7 2.7 6 4z" style="fill:none;stroke:#9294a0;stroke-width:.3;stroke-opacity:.69"/><path d="M6.8 740.4h638V-.2H6.8zm343-67c-.4 9.2-4.9 16.5-13 18.7-5.1 1.4-10.3 2.8-16 2-.4 0-.8-.9-1-1-8.6-2.3-12.9-7.9-16-15.8-.3-.7-.9-.8-1-2-1.1-2.7-1.4-6.5-1-9.9.8-6.6 4.6-10.3 10-13.8 17.3-11.1 38.8 2.5 38 21.8" style="fill-opacity:0"/><path d="M311.8 651.7c-3.9 3.2-9.1 9.4-10 13.8-.4 3.3-.1 7.2 1 9.9-.3-2.4-.2-5.5 0-7.9s1.8-5.9 3-7.9c2.6-4.3 8.2-9.1 13-9.9s12.6-.6 17 1 7.9 6.2 10 9.9c1.6 2.8 2.7 4.6 3 7.9.1 1.6.1 3.3 0 4.9 0-.1 1 0 1 0 .8-19.3-20.7-32.9-38-21.7" style="fill:#080c16;fill-opacity:.27"/><path d="M305.8 659.6c2.3-3.2 9.6-9.1 13-9.9-4.7.8-10.4 5.6-13 9.9" style="fill:#151721;fill-opacity:.46"/><path d="M305.8 659.6c-1.2 2-2.8 5.4-3 7.9h1c1.7-5.9 6-10 11-13.8 5.8-4.4 16.2-4.4 22 0 4 3.1 10.1 7.8 11 12.8.1.5 0 1.5 0 2 .3.2 1 0 1 0-.3-3.3-1.4-5.1-3-7.9-1.9-2.3-7.5-8.6-10-9.9-4.4-1.6-12.2-1.8-17-1-3.4.8-10.7 6.7-13 9.9" style="fill:#343642;fill-opacity:.69"/><path d="M314.8 653.7c5.9-2.6 16.2-3.3 22 0-5.7-4.4-16.2-4.4-22 0" style="fill:#3e404c;fill-opacity:.95"/><path d="M345.8 660.6c-2.1-3.6-5.6-8.3-10-9.9 2.5 1.3 8.1 7.6 10 9.9" style="fill:#30323e;fill-opacity:.54"/><path d="M301.8 665.5c.9-4.4 6.1-10.7 10-13.8-5.4 3.5-9.2 7.2-10 13.8" style="fill:#070916;fill-opacity:.13"/><path d="M314.8 653.7c-5 3.8-9.3 7.9-11 13.8.4 1.9-.3 4 0 5.9.9-11.2 11.7-11.3 20-10.9s19.2-6.7 24 4c-.9-5-7-9.7-11-12.8-5.8-3.3-16.1-2.7-22 0" style="fill:#696c7c;fill-opacity:.99"/><path d="M303.8 673.4c.2 1.2.6 1.8 1 3 1.6 4.7 4.9 9.4 9 12.8 5.9 3.8 13.3 2.8 20 2 .5-.1 1.5.1 2 0 2.4-1.4 8.8-10.8 11-10.8 1.2-2.9 1.2-8.6 1-11.8 0-.5.1-1.5 0-2-4.7-10.7-15.7-3.5-24-4s-19.1-.4-20 10.8" style="fill:#7f8290"/><path d="M302.8 675.4c.1 1.2.7 1.3 1 2 0-.3.9-.7 1-1-.4-1.2-.8-1.7-1-3-.3-1.9.4-4 0-5.9h-1c-.2 2.4-.3 5.4 0 7.9" style="fill:#5a5c67;fill-opacity:.68"/><path d="M346.8 680.3c1.1-2.3 1.9-3.9 2-6.9.1-1.6.1-3.3 0-4.9 0 0-.7.2-1 0 .2 3.2.2 8.9-1 11.8" style="fill:#71737f;fill-opacity:.64"/><path d="M346.8 680.3c-.2.4.1 1.5 0 2-.5 2.9-5.2 7.6-8 8.9-.5.2-1.6.8-2 1 8.1-2.2 12.6-9.5 13-18.7 0 0-1-.1-1 0-.1 2.9-.9 4.5-2 6.8" style="fill:#010415;fill-opacity:.17"/><path d="M303.8 677.3c3.1 7.9 7.4 13.5 16 15.8-.3-1.3-4-2.3-6-3.9-4.1-3.4-7.4-8.1-9-12.8-.1.2-1 .6-1 .9" style="fill:#90929d;fill-opacity:.52"/><path d="M335.8 691.1c3.1-.8 6.8-4.7 9-6.9.2-.3 2-1.9 2-2 .1-.5-.2-1.6 0-2-2.2.1-8.6 9.5-11 10.9" style="fill:#9ea0ad;fill-opacity:.65"/><path d="M344.8 684.2c-1.6 2-4 5.5-6 6.9 2.8-1.2 7.5-6 8-8.9 0 .1-1.7 1.7-2 2" style="fill:#3b3e49;fill-opacity:.36"/><path d="M335.8 691.1c-.5.1-1.5-.1-2 0-3.9 1.9-9 1.8-13 3 5.7.8 10.9-.6 16-2 .4-.1 1.5-.8 2-1 2-1.4 4.4-4.9 6-6.9-2.2 2.2-5.9 6.1-9 6.9" style="fill:#a7a9b4;fill-opacity:.37"/><path d="M319.8 693.1c.2.1.6.9 1 1 4-1.2 9.1-1.1 13-3-6.7.8-14.1 1.8-20-2 2 1.7 5.7 2.7 6 4" style="fill:#9294a0;fill-opacity:.69"/></svg>