<svg xmlns="http://www.w3.org/2000/svg" xml:space="preserve" id="Layer_7" x="0" y="0" viewBox="0 0 638 751"><circle cx="423.4" cy="650.6" r="25.8" style="fill:#292c35"/><path d="M15.7 740.4h638V-.2h-638v740.6m400-111.4c1.9-.9 1.7-.1 3 0 11.7-2.6 23.7 3.7 27 14.8.1.5 1 1.8 1 2 5 2.2 1.2 12.1-1.3 16.5s-6.9 10.7-13.7 10.1h-15c-14.8.7-18.2-21.2-16-32.5 3.7-.1 6.3-6.1 8.3-7.6s7.6-7.3 6.7-3.3z" style="fill:none;stroke:#000;stroke-width:.3;stroke-opacity:0"/><path d="M416.7 672.4c-6.8-5.3-11.9-7.6-14-16.8-.7-2.9-1.7-7.2-1-10.8.1-.6.7-2.4 1-3 2.1-4.3 8.7-10.9 13-12.8 1-4-4.7 1.7-6.7 3.3-2 1.5-4.6 7.5-8.3 7.6-2.2 11.3 1.2 33.2 16 32.5z" style="fill:none;stroke:#0d111d;stroke-width:.3;stroke-opacity:.2"/><path d="M415.7 629c-4.3 2-10.9 8.5-13 12.8 2.2-3.4 12.1-12.4 15-11.8.3-.2.8-.9 1-1-1.3-.1-1.1-.9-3 0z" style="fill:none;stroke:#292b36;stroke-width:.3;stroke-opacity:.49"/><path d="M402.7 641.8c-.3.6-.9 2.3-1 3 .9-2.5 5.9-4.7 7.7-7.1 1.8-2.5 5.6-6 8.2-7.6-2.8-.6-12.7 8.3-14.9 11.7z" style="fill:none;stroke:#474a56;stroke-width:.3;stroke-opacity:.7"/><path d="M417.7 630c-2.6 1.6-6.4 5.2-8.2 7.6-1.8 2.5-6.8 4.6-7.7 7.1-.7 3.6.3 7.9 1 10.8 1.3 3.3 5.5 5.6 7.2 8.6s8.3 4.6 8.8 7.1c3.2-.5 9.6-.7 12 1h1c.2-.2 0-1 0-1-.7-1.2 3.3-2.7 5-3.9 7-6 9.7-15.8 9-23.7-3.3-11.1-15.3-17.4-27-14.8-.3.3-.8 1-1.1 1.2z" style="fill:none;stroke:#757887;stroke-width:.3;stroke-opacity:.99"/><path d="M436.7 667.5c3.4-2.5 7.6-6.4 9-9.9.9-3.3 1.9-8.2 1-11.8 0-.2-.9-1.5-1-2 .7 7.9-2 17.7-9 23.7z" style="fill:none;stroke:#9093a1;stroke-width:.3;stroke-opacity:.81"/><path d="M446.7 645.8c.9 3.6-.1 8.5-1 11.8-1.7 6-7.3 13.1-14 13.8 0 0 .2.7 0 1 6.8.6 11.3-5.7 13.7-10.1 2.5-4.5 6.2-14.3 1.3-16.5z" style="fill:none;stroke:#070c1b;stroke-width:.3;stroke-opacity:.24"/><path d="M416.7 672.4h1c.3-.1.6-.9 1-1-.5-2.6-7-4.1-8.8-7.1s-6-5.3-7.2-8.6c2 9.1 7.2 11.4 14 16.7z" style="fill:none;stroke:#848692;stroke-width:.3;stroke-opacity:.58"/><path d="M436.7 667.5c-1.7 1.2-5.7 2.7-5 3.9 6.7-.7 12.3-7.8 14-13.8-1.4 3.4-5.6 7.4-9 9.9z" style="fill:none;stroke:#9b9da9;stroke-width:.3;stroke-opacity:.55"/><path d="M417.7 672.4h13c-2.4-1.7-8.7-1.4-12-1-.4.1-.8.9-1 1z" style="fill:none;stroke:#a9acb7;stroke-width:.3;stroke-opacity:.27"/><path d="M15.7 740.4h638V-.2h-638zm400-111.4c1.9-.9 1.7-.1 3 0 11.7-2.6 23.7 3.7 27 14.8.1.5 1 1.8 1 2 5 2.2 1.2 12.1-1.3 16.5s-6.9 10.7-13.7 10.1h-15c-14.8.7-18.2-21.2-16-32.5 3.7-.1 6.3-6.1 8.3-7.6s7.6-7.3 6.7-3.3" style="fill-opacity:0"/><path d="M416.7 672.4c-6.8-5.3-11.9-7.6-14-16.8-.7-2.9-1.7-7.2-1-10.8.1-.6.7-2.4 1-3 2.1-4.3 8.7-10.9 13-12.8 1-4-4.7 1.7-6.7 3.3-2 1.5-4.6 7.5-8.3 7.6-2.2 11.3 1.2 33.2 16 32.5" style="fill:#0d111d;fill-opacity:.2"/><path d="M415.7 629c-4.3 2-10.9 8.5-13 12.8 2.2-3.4 12.1-12.4 15-11.8.3-.2.8-.9 1-1-1.3-.1-1.1-.9-3 0" style="fill:#292b36;fill-opacity:.49"/><path d="M402.7 641.8c-.3.6-.9 2.3-1 3 .9-2.5 5.9-4.7 7.7-7.1 1.8-2.5 5.6-6 8.2-7.6-2.8-.6-12.7 8.3-14.9 11.7" style="fill:#474a56;fill-opacity:.7"/><path d="M417.7 630c-2.6 1.6-6.4 5.2-8.2 7.6-1.8 2.5-6.8 4.6-7.7 7.1-.7 3.6.3 7.9 1 10.8 1.3 3.3 5.5 5.6 7.2 8.6s8.3 4.6 8.8 7.1c3.2-.5 9.6-.7 12 1h1c.2-.2 0-1 0-1-.7-1.2 3.3-2.7 5-3.9 7-6 9.7-15.8 9-23.7-3.3-11.1-15.3-17.4-27-14.8-.3.3-.8 1-1.1 1.2" style="fill:#757887;fill-opacity:.99"/><path d="M436.7 667.5c3.4-2.5 7.6-6.4 9-9.9.9-3.3 1.9-8.2 1-11.8 0-.2-.9-1.5-1-2 .7 7.9-2 17.7-9 23.7" style="fill:#9093a1;fill-opacity:.81"/><path d="M446.7 645.8c.9 3.6-.1 8.5-1 11.8-1.7 6-7.3 13.1-14 13.8 0 0 .2.7 0 1 6.8.6 11.3-5.7 13.7-10.1 2.5-4.5 6.2-14.3 1.3-16.5" style="fill:#070c1b;fill-opacity:.24"/><path d="M416.7 672.4h1c.3-.1.6-.9 1-1-.5-2.6-7-4.1-8.8-7.1s-6-5.3-7.2-8.6c2 9.1 7.2 11.4 14 16.7" style="fill:#848692;fill-opacity:.58"/><path d="M436.7 667.5c-1.7 1.2-5.7 2.7-5 3.9 6.7-.7 12.3-7.8 14-13.8-1.4 3.4-5.6 7.4-9 9.9" style="fill:#9b9da9;fill-opacity:.55"/><path d="M417.7 672.4h13c-2.4-1.7-8.7-1.4-12-1-.4.1-.8.9-1 1" style="fill:#a9acb7;fill-opacity:.27"/></svg>